# xmcd
#
# Track frame offsets:
#	150
#	6900
#	28698
#	75800
#	96242
#	104642
#	122809
#	136122
#	146625
#	163142
#	170671
#	187915
#	201389
#	224828
#	235272
#	244028
#	257823
#	271095
#	292611
#	303546
#
# Disc length: 4200 seconds
#
# Revision: 1
# Processed by: cddbd v1.5.2PL0 Copyright (c) Steve Scherf et al.
# Submitted via: audiograbber 1.83.01
#
DISCID=20106614
DTITLE=Stefan Grossman - Flowers on the wall
DYEAR=2007
DGENRE=Bluegrass
TTITLE0=Morning comes
TTITLE1=The birthday song
TTITLE2=Odyssey
TTITLE3=The alibi
TTITLE4=Matesa
TTITLE5=Orphan Sunday
TTITLE6=Little Sally Walker
TTITLE7=Make believe stunt
TTITLE8=Fat man
TTITLE9=Waterfalls
TTITLE10=A prairie song
TTITLE11=Sound techniques recording blues
TTITLE12=Bye and bye
TTITLE13=Martin's joy
TTITLE14=Lena Anne
TTITLE15=Danish drone
TTITLE16=Man's confidence
TTITLE17=Song for a brother
TTITLE18=My travelling song
TTITLE19=Flowers on the wall
EXTD=
EXTT0=
EXTT1=
EXTT2=
EXTT3=
EXTT4=
EXTT5=
EXTT6=
EXTT7=
EXTT8=
EXTT9=
EXTT10=
EXTT11=
EXTT12=
EXTT13=
EXTT14=
EXTT15=
EXTT16=
EXTT17=
EXTT18=
EXTT19=
PLAYORDER=
